<svg width="1080" height="1080" viewBox="0 0 1080 1080" fill="none" xmlns="http://www.w3.org/2000/svg">
<circle cx="540" cy="540" r="400" fill="white"/>
<path d="M540.4 722C520.067 722 501.4 717.5 484.4 708.5C467.734 699.5 454.4 687 444.4 671C434.734 655 429.9 636 429.9 614V461.5C429.9 453.5 427.067 446.667 421.4 441C415.734 435.333 408.9 432.5 400.9 432.5C392.9 432.5 386.067 435.333 380.4 441C375.067 446.667 372.4 453.5 372.4 461.5V716H290.4V467.5C290.4 446.833 295.067 428.333 304.4 412C314.067 395.667 327.234 383 343.9 374C360.9 364.667 379.9 360 400.9 360C421.9 360 440.734 364.667 457.4 374C474.067 383 487.234 395.667 496.9 412C506.9 428.333 511.9 446.833 511.9 467.5V620C511.9 628.333 514.567 635.333 519.9 641C525.567 646.333 532.234 649 539.9 649C547.9 649 554.734 646.333 560.4 641C566.4 635.333 569.4 628.333 569.4 620V467.5C569.4 446.833 574.234 428.333 583.9 412C593.567 395.667 606.734 383 623.4 374C640.067 364.667 658.9 360 679.9 360C700.9 360 719.734 364.667 736.4 374C753.067 383 766.234 395.667 775.9 412C785.567 428.333 790.4 446.833 790.4 467.5V716H708.4V461C708.4 453.333 705.567 446.667 699.9 441C694.567 435.333 687.9 432.5 679.9 432.5C672.234 432.5 665.4 435.333 659.4 441C653.734 446.667 650.9 453.333 650.9 461V614C650.9 636 645.9 655 635.9 671C625.9 687 612.567 699.5 595.9 708.5C579.234 717.5 560.734 722 540.4 722Z" fill="#102E44"/>
</svg>
